<svg width="119" height="25" viewBox="0 0 119 25" fill="none" xmlns="http://www.w3.org/2000/svg">
<g clip-path="url(#clip0_11_437)">
<path d="M36.1233 6.05297C37.3567 6.05297 38.3641 6.18066 39.1419 6.43242C39.9197 6.68782 40.5235 6.99065 40.9642 7.35915C41.3976 7.72401 41.6976 8.13265 41.8679 8.57778C42.0346 9.01925 42.1198 9.43884 42.1198 9.83288C42.1198 10.2671 42.0161 10.7377 41.8124 11.2412C41.6124 11.7447 41.2901 12.2227 40.8457 12.6642C40.4049 13.1129 39.816 13.5179 39.0975 13.8974C38.3752 14.2768 37.4863 14.5614 36.427 14.7694L36.3715 14.9774C36.9382 14.9956 37.4826 15.0759 38.0197 15.2291C38.5567 15.3751 39.016 15.583 39.4049 15.8348C39.8345 16.1157 40.179 16.4915 40.4457 16.9512C40.7161 17.411 40.8494 17.9728 40.8494 18.6296C40.8494 19.5709 40.6012 20.4393 40.1012 21.2274C39.6012 22.0264 38.9123 22.7014 38.0493 23.256C37.1271 23.847 36.1418 24.2849 35.0937 24.5695C34.0455 24.854 32.8417 24.9963 31.4898 24.9963C29.7268 24.9963 28.3046 24.6315 27.2193 23.8908C26.1378 23.1538 25.6008 22.2453 25.6008 21.1544C25.6008 20.5451 25.8008 20.0306 26.1897 19.611C26.586 19.1915 27.1193 18.9835 27.7786 18.9835C28.4379 18.9835 29.0157 19.1732 29.4379 19.5563C29.8602 19.9431 30.0713 20.4393 30.0713 21.0449C30.0713 21.4828 30.0009 21.9169 29.8565 22.3475C29.7157 22.7744 29.5898 23.1173 29.4898 23.38C29.6861 23.4895 29.9268 23.588 30.2046 23.6719C30.4824 23.7558 30.8157 23.7996 31.1972 23.7996C31.7787 23.7996 32.3491 23.6792 32.9084 23.4457C33.4714 23.2012 33.9603 22.8619 34.3936 22.4095C34.8603 21.9024 35.227 21.3295 35.49 20.6801C35.7455 20.0306 35.8789 19.1805 35.8789 18.1443C35.8789 17.4766 35.6974 16.9294 35.3307 16.4842C34.9677 16.0427 34.2714 15.8238 33.238 15.8238H31.5676L31.9343 14.3024H33.1195C34.3936 14.3024 35.4085 13.8755 36.1715 13.0254C36.9345 12.1716 37.3197 11.0004 37.3197 9.49722C37.3197 8.80764 37.1345 8.264 36.7678 7.85901C36.3937 7.45402 35.8122 7.2497 35.0159 7.2497C34.6307 7.2497 34.2233 7.30442 33.7899 7.41388C33.3566 7.52699 33.0047 7.65469 32.7232 7.80063C32.8232 8.09616 32.938 8.45737 33.064 8.89155C33.1936 9.32208 33.2566 9.72343 33.2566 10.0956C33.2566 10.7012 33.0566 11.2011 32.6528 11.5769C32.2491 11.9564 31.701 12.1461 31.0158 12.1461C30.375 12.1461 29.8528 11.9418 29.4713 11.5185C29.0898 11.0989 28.8898 10.5918 28.8898 9.98977C28.8898 9.00101 29.5935 8.09616 30.9861 7.27888C32.3788 6.46161 34.0973 6.04932 36.1307 6.04932L36.1233 6.05297Z" fill="#FF6918"/>
<path d="M50.5089 20.7019C48.5681 20.7019 47.0199 20.162 45.8606 19.0747C44.7051 17.9874 44.1273 16.5535 44.1273 14.7584C44.1273 11.3324 45.4273 8.39532 48.0274 5.95808C50.6238 3.51354 54.0572 2.05411 58.3203 1.56885L58.387 2.85314L56.9684 3.083C55.8758 3.36394 54.9313 3.75434 54.1202 4.25419C53.309 4.7577 52.6275 5.30863 52.0645 5.91429C51.509 6.50901 51.046 7.17305 50.6682 7.90641C50.2904 8.63248 49.9571 9.40598 49.6645 10.2123C50.246 9.738 50.9312 9.34395 51.7423 9.01923C52.5497 8.6945 53.5053 8.53397 54.6239 8.53397C55.9239 8.53397 57.0128 8.9645 57.8944 9.82191C58.7722 10.672 59.2129 11.7885 59.2129 13.1567C59.2129 15.1963 58.3721 16.9658 56.698 18.4654C55.0202 19.9576 52.9572 20.7056 50.5089 20.7056V20.7019ZM54.3461 13.1822C54.3461 12.2883 54.1387 11.5805 53.7276 11.0551C53.3127 10.5334 52.7831 10.278 52.1497 10.278C51.6423 10.278 51.1608 10.3728 50.7089 10.5626C50.2571 10.7596 49.7756 11.139 49.2682 11.7155C49.2052 11.9782 49.0978 12.4854 48.9459 13.2406C48.7867 13.9959 48.7089 14.9263 48.7089 16.0281C48.7089 17.13 48.8941 18.0312 49.2682 18.666C49.6422 19.2972 50.1423 19.611 50.7571 19.611C51.7275 19.611 52.5646 18.9908 53.2757 17.7357C53.9831 16.4842 54.3424 14.9664 54.3424 13.1822H54.3461Z" fill="#FF6918"/>
<path d="M65.6538 25.0001C63.9316 25.0001 62.4797 24.6316 61.3093 23.8909C60.1352 23.1429 59.5425 22.26 59.5425 21.2347C59.5425 20.6291 59.7425 20.1183 60.1352 19.6987C60.5315 19.2791 61.0611 19.0711 61.7241 19.0711C62.3871 19.0711 62.9649 19.2609 63.3871 19.6367C63.8093 20.0198 64.0168 20.5123 64.0168 21.1143C64.0168 21.5376 63.9464 21.99 63.7945 22.4643C63.6464 22.9423 63.5241 23.3108 63.4278 23.5771C63.576 23.6173 63.8205 23.6683 64.1723 23.7231C64.5205 23.7778 64.8612 23.807 65.1983 23.807C65.6427 23.807 66.1168 23.6647 66.6391 23.3947C67.1576 23.1101 67.628 22.7088 68.0502 22.1907C68.5132 21.6288 68.8762 20.9939 69.154 20.2934C69.428 19.5856 69.5688 18.7209 69.5688 17.681C69.5688 16.7178 69.3243 15.948 68.828 15.3788C68.3317 14.806 67.6391 14.525 66.7354 14.525C66.2983 14.525 65.902 14.5798 65.565 14.6929C65.2242 14.806 64.8946 14.9483 64.5686 15.1307C64.2427 15.3204 63.9612 15.5028 63.7316 15.6816C63.4945 15.8677 63.2501 16.083 62.9908 16.3493L62.0241 16.0027L65.3575 6.46533H76.3394L75.5208 10.0081H65.6168L64.1834 14.2806C64.9872 13.8245 65.7242 13.4961 66.3872 13.2991C67.0539 13.0984 67.7798 12.9999 68.5762 12.9999C69.2762 12.9999 69.9466 13.0765 70.5984 13.2152C71.2503 13.3575 71.8726 13.6275 72.48 14.0179C73.0652 14.401 73.5356 14.8899 73.8985 15.4919C74.2541 16.0903 74.4319 16.809 74.4319 17.6591C74.4319 19.7169 73.5689 21.4573 71.8429 22.8766C70.1207 24.2959 68.0539 25.0037 65.6427 25.0037L65.6538 25.0001Z" fill="#FF6918"/>
<path d="M69.2281 5.23551H71.0614C71.0614 5.23551 73.5208 2.29111 75.6468 2.42246C75.6468 2.42246 78.5024 2.09409 79.0358 9.23069C79.0358 9.23069 78.7024 13.4849 81.2321 13.2879C81.2321 13.2879 82.5581 13.4192 82.5581 11.3906C82.5581 11.3906 82.7581 6.61466 84.3544 4.31971C84.3544 4.31971 84.7508 3.4696 85.0174 5.23551C85.0174 5.23551 86.0804 10.6026 86.5434 11.7154C86.5434 11.7154 87.2138 14.0067 89.1361 12.7625C89.1361 12.7625 89.5324 12.3028 89.5324 11.1243C89.5324 11.1243 89.2027 6.28264 91.6621 3.0719C91.6621 3.0719 93.2584 6.0163 94.0547 11.0586C94.0547 11.0586 94.3177 14.0687 97.2437 12.6968C97.2437 12.6968 98.3734 11.7154 97.7771 10.7959C97.7771 10.7959 96.7808 9.74514 96.5808 8.50462L95.5844 4.50944C95.5844 4.50944 94.514 -0.131542 92.5843 -0.000193319C92.5843 -0.000193319 89.9954 -0.0658677 88.4027 6.0163C88.4027 6.0163 88.2064 6.41034 87.736 4.25039C87.736 4.25039 87.073 0.320881 85.3471 0.386555C85.3471 0.386555 84.2841 0.255207 82.8174 3.13758C82.8174 3.13758 82.1359 4.44741 81.6544 5.86671C81.6544 5.86671 81.4358 6.20967 81.3469 5.60766C81.3469 5.60766 81.0432 2.28746 79.1061 1.03965C79.1061 1.03965 76.469 -0.868553 73.5504 0.758709C73.5504 0.758709 71.0429 2.21814 69.2206 5.22821L69.2281 5.23551Z" fill="#FF6918"/>
<path d="M117.226 3.9769C117.226 3.9769 118 2.41167 116.492 1.61628C116.492 1.61628 113.363 -0.561917 106.729 0.1605C106.729 0.1605 99.4364 0.452385 97.4067 4.91824C97.4067 4.91824 95.3474 8.8368 100.433 11.8469C100.433 11.8469 102.64 13.3355 108.018 13.1531C108.018 13.1531 112.622 13.226 115.867 11.2667C115.867 11.2667 118.263 9.78178 119 7.3117C119 7.3117 113.915 9.96056 108.207 9.92043C108.207 9.92043 102.422 10.1029 99.8068 7.93195C99.8068 7.93195 98.9956 7.20224 98.7734 6.76441C98.7734 6.76441 100.173 3.42597 108.211 3.17057C108.211 3.17057 113.333 3.31651 115.059 3.78718C115.059 3.78718 115.541 3.8638 115.689 4.07906C115.689 4.07906 116.385 4.8781 117.23 3.96961L117.226 3.9769Z" fill="#FF6918"/>
<path d="M3.75567 21.7162H2.34452C1.6445 20.556 1.14078 19.5927 0.833359 18.8265C0.277786 17.4474 0 16.0427 0 14.6161C0 13.1895 0.277786 11.7994 0.833359 10.4166C1.15189 9.62484 1.65931 8.66526 2.35933 7.5415H3.75567C2.41119 9.99699 1.74079 12.354 1.74079 14.6161C1.74079 16.8782 2.41119 19.2607 3.75567 21.7162Z" fill="#FF6918"/>
<path d="M11.5411 16.714V21.0376H9.71141V16.714H4.57422V15.1707H16.6042V16.714H11.5374H11.5411ZM11.6263 10.2487C11.9226 11.0624 12.5263 11.6899 13.4412 12.135C14.3523 12.5802 15.256 12.8794 16.1598 13.0435C15.9486 13.2698 15.7523 13.4923 15.5672 13.7112C15.3857 13.9301 15.2116 14.1272 15.0486 14.3059C14.3486 14.1454 13.5671 13.8718 12.7041 13.485C11.8411 13.0983 11.1337 12.5583 10.5892 11.8687C10.1633 12.4379 9.55215 12.9377 8.74842 13.3792C7.94099 13.817 7.09282 14.1308 6.20019 14.3096C6.01871 14.1199 5.815 13.9046 5.58906 13.6638C5.36313 13.423 5.15572 13.2077 4.95942 13.018C6.19649 12.7626 7.21874 12.4087 8.01877 11.9636C8.81879 11.5148 9.32622 10.9456 9.53734 10.256H5.88167V8.72363H15.2783V10.256H11.6226L11.6263 10.2487Z" fill="#FF6918"/>
<path d="M18.7636 7.5415C19.4562 8.65797 19.9636 9.61389 20.2895 10.4166C20.8377 11.7994 21.1118 13.2004 21.1118 14.6307C21.1118 16.0609 20.8377 17.4547 20.2895 18.8265C19.9636 19.6475 19.4562 20.6107 18.7636 21.7162H17.3524C18.708 19.2425 19.3821 16.8782 19.3821 14.6307C19.3821 12.3832 18.7043 10.0152 17.3524 7.5415H18.7636Z" fill="#FF6918"/>
</g>
<defs>
<clipPath id="clip0_11_437">
<rect width="119" height="25" fill="white"/>
</clipPath>
</defs>
</svg>
