<svg xmlns="http://www.w3.org/2000/svg" width="168" height="18" viewBox="0 0 168 18">
  <path id="logo" d="M21305.75,18410l-4.246-7.969V18410H21295v-18h7.254l4.25,7.969V18392h6.5v18Zm-22.211,0-.48-2.572h-3.121l-.477,2.572h-6.961l4.918-18h8.16c.02.1,4.922,18,4.922,18Zm-2.883-6.686h1.684l-.844-4.629ZM21254.5,18410v-18h6.625v12.082H21268V18410Zm132.75,0v-6l6.75-6h-6v-6h14.25v6l-6.746,6h7.5v6Zm-51.207,0-.484-2.572h-3.117l-.48,2.572H21325l4.914-18h8.164c.031.1,4.918,18,4.918,18Zm-2.887-6.686h1.68l-.84-4.629ZM21235,18410v-17.748s3.387-.252,7.258-.252c5.32,0,7.738,2.535,7.738,6.211s-2.418,6.211-6.535,6.211c-.965,0-2.168-.127-2.168-.127V18410Zm6.293-10.393h.965a1.4,1.4,0,1,0,0-2.789h-.965Zm105.461,4.393v-6h34.492v6Z" transform="translate(-21235 -18391.998)" fill="#fff"/>
</svg>
